<?xml version="1.0" encoding="utf-8"?>
<!-- Generator: Adobe Illustrator 26.2.1, SVG Export Plug-In . SVG Version: 6.00 Build 0)  -->
<svg version="1.1" id="Logo" xmlns="http://www.w3.org/2000/svg" xmlns:xlink="http://www.w3.org/1999/xlink" x="0px" y="0px"
	 viewBox="0 0 500 247.79" style="enable-background:new 0 0 500 247.79;" xml:space="preserve">
<style type="text/css">
	.st0{fill:#0024D3;}
	.st1{fill-rule:evenodd;clip-rule:evenodd;fill:#0024D3;}
</style>
<g>
	<g>
		<path class="st0" d="M145.95,103.41c-23.07,0-43.38-9.06-43.38-33.34c0-24.59,20.72-33.34,43.38-33.34
			c23.14,0,43.1,9.06,43.1,33.34C189.05,95.14,167.87,103.41,145.95,103.41z M145.95,49.64c-17.98,0-26.64,7.96-26.64,20.42
			c0,12.12,8.08,20.43,26.64,20.43c19.37,0,26.45-9.05,26.45-20.42C172.4,57.43,163.78,49.64,145.95,49.64z"/>
		<path class="st1" d="M256.94,100.94l-14.18-16.03c-4.06-4.25-4.79-5.02-12.34-5.02h-14.47l0.01,19.52c0,1.27-1.03,2.3-2.3,2.3
			h-11.84c-1.27,0-2.3-1.04-2.3-2.31V43.5c0-2.78,2.21-5.01,4.99-5.03h42.43c16.26,0.02,25.21,7.27,25.21,20.67
			c0,13.57-11.38,18.12-14.44,19.08l17.95,22.67c0.27,0.33,0.03,0.83-0.4,0.83h-16.59C257.98,101.71,257.36,101.41,256.94,100.94z
			 M244.55,67.18h-28.61v-14.6h28.61c9.04,0,10.94,3.97,10.94,7.3C255.5,63.21,253.6,67.18,244.55,67.18z"/>
		<path class="st0" d="M99.64,40.77v11.03c0,0.5-0.4,0.9-0.89,0.9l-53.62-0.03c0,2.54,0.01,3.58,4.05,3.94l32.25,2.86
			c12.25,1.07,12.27,20.6,0.03,21.71c-9.9,0.9-25.66,2.25-30.74,2.69c-3.61,0.32-5.59,1.37-5.59,4.03l0.01,11.51
			c0,1.27-1.03,2.3-2.3,2.3H30.94c-1.27,0-2.25-1.03-2.25-2.31V83.75c0.01-5.6,1.87-9.17,6.34-9.59c5.34-0.51,38.24-2.39,38.24-2.39
			c0.98-0.48,0.97-1.8-0.02-2.26c0,0-31.98-1.58-38-2.12c-5.19-0.46-6.57-4.36-6.56-9.73V43.48c0-2.77,2.28-5.01,5.05-5.01h63.6
			C98.61,38.47,99.64,39.5,99.64,40.77z"/>
		<path class="st0" d="M369.91,38.47c-2.75,0-5,2.23-5,4.98V99.4c0,1.27,1.01,2.31,2.29,2.31h11.84c1.27,0,2.31-1.03,2.31-2.3V40.78
			c0-1.27-1.03-2.31-2.3-2.31H369.91z"/>
		<path class="st0" d="M406.81,100.43l5.39-10.85h36.29l2.34,4.72c2.25,4.54,6.89,7.42,11.96,7.42H472c0.38,0,0.63-0.41,0.45-0.75
			l-32.07-61.26c-0.38-0.74-1.15-1.24-2.04-1.24h-14.37c-1.93,0-3.61,1.09-4.44,2.69l-31.31,59.8c-0.18,0.34,0.07,0.75,0.45,0.75
			h16.07C405.65,101.71,406.44,101.19,406.81,100.43z M417.98,77.93l12.46-25.02l12.36,25.02H417.98z"/>
		<path class="st0" d="M340.09,39.75c0.38-0.76,1.16-1.28,2.07-1.28h16.06c0.38,0,0.63,0.41,0.45,0.75l-32.07,61.25
			c-0.38,0.74-1.15,1.24-2.04,1.24h-14.37c-1.93,0-3.6-1.09-4.44-2.68l-31.31-59.81c-0.18-0.34,0.07-0.75,0.45-0.75h16.07
			c0.9,0,1.68,0.52,2.06,1.27l23.63,47.51L340.09,39.75z"/>
	</g>
	<g>
		<g>
			<path class="st0" d="M467.78,186.04c-1.43-0.02-2.94-0.05-4.51-0.07c-0.26,0-0.51,0.11-0.68,0.3
				c-4.36,4.95-10.39,9.3-17.47,12.56c-9.8,4.52-21.3,6.92-33.25,6.92h-0.04c-15.9,0-30.8-4.22-41.93-11.83
				c-5.36-3.66-9.53-7.88-12.41-12.54c-2.95-4.77-4.43-9.78-4.43-14.94c0-5.15,1.49-10.16,4.43-14.94
				c4.34-7.02,11.64-13.08,21.12-17.45c9.8-4.52,21.31-6.92,33.25-6.92l0.04,0c15.9,0,30.81,4.22,41.93,11.83
				c3.07,2.1,5.8,4.43,8.11,6.93c0.17,0.19,0.41,0.29,0.67,0.29l1.96-0.03l2.63-0.04c0.34-0.01,0.65-0.2,0.79-0.51
				c0.14-0.31,0.1-0.67-0.11-0.94c-4.98-6.21-12.04-11.5-20.53-15.42c-10.53-4.85-22.79-7.41-35.48-7.41
				c-16.92,0.01-32.88,4.52-44.96,12.75c-5.93,4.05-10.63,8.8-13.93,14.13c-3.46,5.57-5.23,11.55-5.23,17.71c0,0.01,0,0.01,0,0.02
				c0,0.01,0,0.02,0,0.02c0,6.16,1.77,12.14,5.23,17.71c4.95,7.98,13.06,14.69,23.41,19.47c10.53,4.85,22.79,7.41,35.48,7.41h0
				c16.92-0.01,32.87-4.52,44.96-12.75c4.67-3.19,8.58-6.82,11.65-10.84c0.2-0.27,0.24-0.63,0.09-0.93
				C468.41,186.24,468.11,186.04,467.78,186.04z M372.94,188.6c10.28,7.01,24.08,10.84,38.92,10.84c14.83,0,28.64-3.83,38.92-10.84
				c0.58-0.4,1.15-0.81,1.71-1.22c0.3-0.23,0.43-0.63,0.31-0.98c-0.12-0.36-0.45-0.61-0.83-0.61c-15.44-0.28-31.79-0.24-39.49-0.51
				c-18.35-0.64-30.89-1.77-44.44-2.7c-0.37-0.03-0.72,0.19-0.87,0.53c-0.15,0.34-0.07,0.74,0.2,1
				C369.02,185.69,370.88,187.19,372.94,188.6z M451.75,145.73c0.11-0.37-0.02-0.77-0.34-0.99c-0.21-0.15-0.43-0.3-0.64-0.45
				c-10.28-7.01-24.08-10.83-38.92-10.84c-14.84,0-28.64,3.83-38.92,10.84c-1.39,0.95-2.69,1.95-3.9,2.98
				c-0.29,0.25-0.39,0.65-0.25,1c0.14,0.34,0.46,0.56,0.83,0.56c0.02,0,0.03,0,0.05,0c10.13-0.54,28.7-1.61,47.4-1.99
				c8.4-0.17,20.9-0.29,33.85-0.5C451.3,146.34,451.64,146.09,451.75,145.73z M368.03,167.67l1.79,0.01l0.03,0l0.94,0.01l0.91,0.01
				l1.85,0.01h0.15l0,0.14c0.02,0.8,0.05,1.62,0.09,2.45c0.04,0.79,0.1,1.61,0.17,2.45c0.07,0.83,0.15,1.66,0.24,2.45
				c0.08,0.68,0.16,1.36,0.25,2.04c0.02,0.17,0.17,0.3,0.34,0.31l0.97,0.04c0.47,0.02,0.93,0.03,1.4,0.05l1.41,0.05l0.83,0.03h0.01
				c0.1,0,0.19-0.04,0.26-0.11c0.07-0.08,0.1-0.18,0.09-0.28c-0.2-1.78-0.36-3.6-0.47-5.39c-0.12-1.97-0.18-3.98-0.18-5.96
				c0-1.98,0.06-3.99,0.18-5.96c0.11-1.79,0.26-3.6,0.47-5.39c0.01-0.1-0.02-0.21-0.09-0.28c-0.07-0.08-0.17-0.12-0.27-0.11
				l-0.15,0.01l-0.69,0.02l-0.67,0.02l-0.74,0.03l-0.71,0.03l-0.69,0.02l-0.1,0l-0.87,0.03c-0.17,0.01-0.32,0.14-0.34,0.31
				c-0.08,0.61-0.16,1.23-0.23,1.83c-0.09,0.75-0.16,1.51-0.23,2.25c-0.07,0.73-0.12,1.49-0.17,2.24c-0.04,0.73-0.08,1.49-0.1,2.24
				l-0.01,0.14l-0.14,0l-1.86,0.01l-1.23,0.01l-0.6,0.01l-1.82,0.01l-1.81,0.02l-0.16,0l0.01-0.16c0.03-0.72,0.07-1.46,0.12-2.2
				c0.05-0.74,0.12-1.48,0.2-2.2c0.08-0.73,0.17-1.47,0.27-2.2c0.07-0.53,0.15-1.06,0.24-1.6c0.02-0.1-0.01-0.21-0.08-0.29
				c-0.07-0.08-0.17-0.13-0.28-0.12l-0.72,0.03l-1.33,0.05l-1.32,0.05l-0.68,0.03l-0.23,0.01c-0.17,0.01-0.31,0.13-0.34,0.29
				c-0.32,1.73-0.57,3.49-0.74,5.22c-0.18,1.86-0.27,3.74-0.27,5.59c0,1.85,0.09,3.73,0.27,5.59c0.17,1.73,0.41,3.48,0.74,5.22
				c0.03,0.16,0.17,0.28,0.34,0.29l0.91,0.04l1.32,0.05l1.33,0.05l0.1,0l0.62,0.02c0.11,0,0.21-0.04,0.28-0.12
				c0.07-0.08,0.1-0.19,0.08-0.29c-0.1-0.59-0.18-1.19-0.27-1.8c-0.11-0.78-0.2-1.59-0.28-2.4c-0.08-0.82-0.15-1.62-0.2-2.4
				c-0.05-0.8-0.09-1.6-0.11-2.4l0-0.15l0.15,0L368.03,167.67z M411.31,168.07c0-0.84,0-1.67,0-2.51c0-0.83,0-1.67,0-2.5
				c0-1.67,0-3.34-0.01-5.01c0-1.5-0.01-3-0.01-4.49c0-0.1-0.04-0.19-0.11-0.25c-0.07-0.07-0.16-0.1-0.26-0.1l-1.12,0.03l-1.63,0.05
				l-1.61,0.05l-0.83,0.03l-0.3,0.01c-0.19,0.01-0.34,0.16-0.35,0.35c-0.04,1.9-0.07,3.88-0.09,5.88c-0.02,2.08-0.04,4.22-0.04,6.36
				c0,2.14,0.01,4.28,0.04,6.36c0.02,2,0.06,3.98,0.09,5.88c0,0.19,0.15,0.34,0.35,0.35l0.88,0.03l1.37,0.04l1.38,0.04l1.38,0.04
				l1.24,0.03l1.56,0.04l2.83,0.08l2.86,0.08c0.8,0.02,1.6,0.04,2.4,0.06h0.01c0.19,0,0.35-0.15,0.36-0.34
				c0.01-0.33,0.03-0.65,0.04-0.98l0.06-1.48c0.02-0.49,0.03-0.99,0.05-1.48c0.01-0.32,0.02-0.64,0.03-0.97
				c0-0.1-0.03-0.19-0.1-0.26c-0.07-0.07-0.16-0.11-0.25-0.11l-0.78-0.01l-1.4-0.02l-2.66-0.04l-1.26-0.02l-1.37-0.02l-1.24-0.02
				l-1.35-0.02l-0.15,0v-0.15C411.31,171.41,411.31,169.74,411.31,168.07z M473.69,158.81c-0.28-2.23-0.69-4.49-1.22-6.71
				c-0.04-0.16-0.19-0.28-0.35-0.27c-2.19,0.04-4.35,0.08-6.5,0.12c-2.26,0.04-4.5,0.08-6.72,0.13c-2.2,0.04-4.38,0.09-6.55,0.13
				c-1.95,0.04-3.89,0.08-5.81,0.12c-0.1,0-0.2,0.05-0.26,0.13c-0.07,0.08-0.1,0.18-0.08,0.28c0.28,2.09,0.49,4.22,0.64,6.32
				c0.16,2.29,0.24,4.62,0.24,6.9c0,2.29-0.08,4.61-0.24,6.9c-0.15,2.1-0.36,4.23-0.64,6.32c-0.01,0.1,0.02,0.2,0.08,0.28
				c0.07,0.08,0.16,0.12,0.26,0.12l0.43,0.01l0.91,0.02l1.92,0.04l1.3,0.03l0.63,0.01l1.52,0.03c0.18,0,0.33-0.12,0.36-0.3
				c0.09-0.57,0.18-1.15,0.27-1.77c0.1-0.71,0.2-1.45,0.28-2.2c0.09-0.76,0.16-1.5,0.23-2.21c0.06-0.71,0.12-1.45,0.17-2.21
				l0.01-0.14l0.14,0l1.3,0.01l1.36,0.01h0.04l2.65,0.02l2.72,0.02l1.34,0.01l1.41,0.01h0.16l-0.01,0.16
				c-0.06,0.74-0.13,1.49-0.21,2.25c-0.08,0.73-0.18,1.48-0.29,2.25c-0.11,0.73-0.23,1.49-0.36,2.24c-0.1,0.54-0.2,1.09-0.32,1.64
				c-0.02,0.1,0,0.21,0.07,0.29c0.07,0.08,0.17,0.13,0.27,0.13l1.44,0.03l0.99,0.02l1.07,0.02l2.08,0.04l1.7,0.03h0.01
				c0.16,0,0.31-0.11,0.34-0.27c0.54-2.22,0.95-4.48,1.22-6.71c0.29-2.37,0.44-4.77,0.44-7.14
				C474.13,163.58,473.98,161.18,473.69,158.81z M465.86,165.67l-0.15,0l-2.75,0l-1.37,0h-1.36l-2.7,0l-1.34,0h-1.48v-0.15
				c0-0.64-0.02-1.28-0.03-1.92c-0.02-0.64-0.04-1.28-0.08-1.92c-0.03-0.64-0.07-1.28-0.12-1.92c-0.05-0.64-0.1-1.28-0.17-1.92
				l-0.02-0.16l0.16,0l1.37-0.02l1.27-0.01l2.61-0.03l0.07,0l1.39-0.02l1.31-0.01l2.73-0.03l0.13,0l0.02,0.13
				c0.08,0.64,0.15,1.3,0.21,1.96c0.06,0.65,0.11,1.31,0.16,1.96c0.04,0.67,0.08,1.33,0.1,1.96c0.02,0.66,0.03,1.32,0.04,1.96
				L465.86,165.67z M388.2,162.04c0.01-0.36,0.02-0.71,0.03-1.07l0.04-1.07c0.01-0.35,0.03-0.71,0.05-1.07l0.01-0.14l0.14,0
				c1.04-0.02,2.08-0.04,3.12-0.06l1.43-0.03l1.74-0.03c1.07-0.02,2.14-0.04,3.21-0.06c0.92-0.02,1.85-0.03,2.78-0.05
				c0.19,0,0.34-0.16,0.35-0.35l0.02-0.83c0.01-0.44,0.02-0.88,0.03-1.32l0.01-0.44l0.03-0.88c0.01-0.26,0.02-0.52,0.03-0.78
				c0-0.1-0.03-0.19-0.1-0.26c-0.07-0.07-0.17-0.11-0.26-0.1c-1.41,0.04-2.82,0.09-4.21,0.13c-1.56,0.05-3.11,0.1-4.65,0.15
				c-1.53,0.05-3.05,0.1-4.56,0.15c-1.35,0.04-2.69,0.09-4.03,0.14c-0.18,0.01-0.32,0.14-0.34,0.32c-0.19,1.86-0.34,3.73-0.44,5.57
				c-0.11,2-0.16,4.02-0.16,6c0,1.98,0.05,4,0.16,5.99c0.1,1.84,0.25,3.71,0.44,5.57c0.02,0.18,0.16,0.31,0.34,0.32
				c1.36,0.05,2.73,0.09,4.1,0.14c1.2,0.04,2.4,0.08,3.6,0.12l1.04,0.03l4.74,0.15c1.43,0.04,2.86,0.09,4.31,0.13c0,0,0.01,0,0.01,0
				c0.09,0,0.18-0.04,0.25-0.1c0.07-0.07,0.11-0.17,0.1-0.26c-0.01-0.29-0.02-0.59-0.03-0.88c-0.01-0.47-0.03-0.94-0.04-1.42
				l-0.04-1.42l-0.02-0.93c0-0.19-0.16-0.34-0.35-0.35c-0.96-0.02-1.92-0.03-2.87-0.05c-1.11-0.02-2.21-0.04-3.31-0.06l-1.47-0.03
				l-1.78-0.03l-0.96-0.02l-2.24-0.04l-0.14,0l-0.01-0.14c-0.02-0.38-0.03-0.77-0.05-1.16c-0.02-0.39-0.03-0.78-0.04-1.17
				c-0.01-0.39-0.02-0.77-0.03-1.16c-0.01-0.39-0.02-0.78-0.02-1.16l0-0.15l0.15,0l2.87,0.01l2.91,0.02l2.95,0.02l2.48,0.01
				c0.09,0,0.19-0.04,0.25-0.1c0.07-0.07,0.1-0.16,0.1-0.25l0-0.76l0-1.27l0-1.27c0-0.25,0-0.5,0-0.76c0-0.09-0.04-0.19-0.1-0.25
				c-0.07-0.07-0.16-0.11-0.25-0.1l-2.47,0.02l-2.95,0.02l-2.91,0.02l-1.39,0.01l-1.48,0.01l-0.15,0l0-0.15
				C388.18,162.75,388.19,162.4,388.2,162.04z M443.55,173.67l-2.41-0.03l-2.91-0.04l-1.38-0.02l-1.5-0.02l-2.84-0.04l-0.15,0
				l0.01-0.15c0.08-1.76,0.13-3.52,0.15-5.22c0.01-0.74,0.02-1.48,0.02-2.22c0-1.01-0.01-2.01-0.03-3
				c-0.03-1.73-0.09-3.48-0.18-5.21c-0.08-1.57-0.19-3.16-0.31-4.73c-0.02-0.19-0.17-0.33-0.36-0.33l-1.31,0.03l-0.09,0l-1.69,0.04
				l-1.76,0.04l-1.23,0.03c-0.1,0-0.19,0.04-0.25,0.11c-0.06,0.07-0.1,0.16-0.09,0.26c0.11,2.02,0.19,4.08,0.25,6.12
				c0.06,2.2,0.09,4.44,0.09,6.65c0,2.21-0.03,4.44-0.09,6.65c-0.06,2.04-0.14,4.1-0.25,6.12c-0.01,0.09,0.03,0.19,0.09,0.26
				c0.07,0.07,0.16,0.11,0.25,0.11l2.24,0.06l1.72,0.04l4.56,0.11l4.65,0.11c1.42,0.03,2.85,0.07,4.29,0.1h0.01
				c0.18,0,0.33-0.13,0.35-0.31c0.05-0.36,0.09-0.72,0.13-1.08c0.06-0.51,0.11-1.02,0.16-1.53c0.05-0.51,0.1-1.02,0.14-1.53
				c0.03-0.33,0.05-0.67,0.08-1c0.01-0.1-0.03-0.2-0.09-0.27C443.74,173.71,443.64,173.67,443.55,173.67z"/>
		</g>
	</g>
</g>
</svg>
